<svg xmlns="http://www.w3.org/2000/svg" version="1.1" width="360" height="540" id="svg2999"><g transform="translate(0 -512.362)" id="layer1"><g id="g10424"><rect width="359" height="539" ry="29.944" x=".5" y="512.862" id="rect6472" style="fill:#000;stroke:#000;stroke-width:1px"/><path d="M33.75.5.5 67v2L34.75.5h-1zm20 0L.5 107v2L54.75.5h-1zm10 0L.5 127v4L65.75.5h-2zm10 0L.5 147v6L76.75.5h-3zm10 0L.5 167v8L87.75.5h-4zm10 0L.5 187v10L98.75.5h-5zm30 0L.5 247v2L124.75.5h-1zm10 0L.5 267v4L135.75.5h-2zm10 0L.5 287v2L144.75.5h-1zm30 0L.5 347v10L178.75.5h-5zm10 0L.5 367v8L187.75.5h-4zm10 0L.5 387v6L196.75.5h-3zm10 0L.5 407v4L205.75.5h-2zm10 0L.5 427v2L214.75.5h-1zm20 0L.5 467v2L234.75.5h-1zm10 0L.5 487v4L245.75.5h-2zm10 0L.5 507v2.563c0 1.058.05 2.095.156 3.125L256.75.5h-3zm10 0L3.094 521.813c.6 1.341 1.31 2.616 2.094 3.843L267.75.5h-4zm10 0L8.844 530.313a29.876 29.876 0 0 0 3.469 3.093L278.75.5h-5zm30 0-269.5 539h1L304.75.5h-1zm10 0-269.5 539h2L315.75.5h-2zm10 0-269.5 539h1L324.75.5h-1zM25.562.906c-.757.124-1.513.26-2.25.438L.5 47v4L25.563.906zM14.438 5.094A30.071 30.071 0 0 0 9.5 9L.781 26.469A30.261 30.261 0 0 0 .5 30.437V33L14.438 5.094zm335.375 3.25L84.25 539.5h5L353.063 11.875a29.966 29.966 0 0 0-3.25-3.531zm6.594 8.812L95.25 539.5h4L358.188 21.625a29.785 29.785 0 0 0-1.782-4.469zM359.5 33 106.25 539.5h3L359.5 39v-6zm0 22L117.25 539.5h2L359.5 59v-4zm0 22L128.25 539.5h1L359.5 79v-2zm0 40L148.25 539.5h1L359.5 119v-2zm0 18L157.25 539.5h2L359.5 139v-4zm0 18L166.25 539.5h3L359.5 159v-6zm0 18L175.25 539.5h4L359.5 179v-8zm0 18L184.25 539.5h5L359.5 199v-10zm0 60L214.25 539.5h1L359.5 251v-2zm0 18L223.25 539.5h2L359.5 271v-4zm0 22L234.25 539.5h1L359.5 291v-2zm0 60-95.25 190.5h5L359.5 359v-10zm0 22-84.25 168.5h4L359.5 379v-8zm0 22-73.25 146.5h3L359.5 399v-6zm0 22-62.25 124.5h2L359.5 419v-4zm0 22-51.25 102.5h1L359.5 439v-2zm0 40-31.25 62.5h1L359.5 479v-2zm0 18-21.656 43.344c.805-.23 1.6-.488 2.375-.782L359.5 499v-4zm-.281 18.531L350.5 531a29.812 29.812 0 0 0 8.719-17.469z" transform="translate(0 512.362)" id="rect6472-7" style="fill:#1629b8;fill-opacity:1;stroke:none"/><path d="m35.25.5 269.5 539h1L36.25.5h-1zm9 0 269.5 539h2L46.25.5h-2zm11 0 269.5 539h1L56.25.5h-1zm26 0 266.438 532.906a29.876 29.876 0 0 0 3.468-3.093L86.25.5h-5zm11 0 262.563 525.156a29.707 29.707 0 0 0 2.093-3.843L96.25.5h-4zm11 0 256.094 512.188c.106-1.03.156-2.067.156-3.125V507L106.25.5h-3zm11 0L359.5 491v-4L116.25.5h-2zm11 0L359.5 469v-2L126.25.5h-1zm20 0L359.5 429v-2L146.25.5h-1zm9 0L359.5 411v-4L156.25.5h-2zm9 0L359.5 393v-6L166.25.5h-3zm9 0L359.5 375v-8L176.25.5h-4zm9 0L359.5 357v-10L186.25.5h-5zm34 0L359.5 289v-2L216.25.5h-1zm9 0L359.5 271v-4L226.25.5h-2zm11 0L359.5 249v-2L236.25.5h-1zm26 0L359.5 197v-10L266.25.5h-5zm11 0L359.5 175v-8L276.25.5h-4zm11 0L359.5 153v-6L286.25.5h-3zm11 0L359.5 131v-4L296.25.5h-2zm11 0L359.5 109v-2L306.25.5h-1zm20 0L359.5 69v-2L326.25.5h-1zm9.188.406L359.5 51v-4L336.687 1.344a30.098 30.098 0 0 0-2.25-.438zm11.125 4.188L359.5 33v-2.563c0-1.35-.11-2.666-.281-3.968L350.5 9a30.071 30.071 0 0 0-4.938-3.906zM10.188 8.344a29.966 29.966 0 0 0-3.25 3.531L270.75 539.5h5L10.187 8.344zm-6.594 8.812a29.785 29.785 0 0 0-1.781 4.469L260.75 539.5h4L3.594 17.156zM.5 33v6l250.25 500.5h3L.5 33zm0 22v4l240.25 480.5h2L.5 55zm0 22v2l230.25 460.5h1L.5 77zm0 40v2l210.25 420.5h1L.5 117zm0 18v4l200.25 400.5h2L.5 135zm0 18v6l190.25 380.5h3L.5 153zm0 18v8l180.25 360.5h4L.5 171zm0 18v10l170.25 340.5h5L.5 189zm0 60v2l144.25 288.5h1L.5 249zm0 18v4l134.25 268.5h2L.5 267zm0 22v2l124.25 248.5h1L.5 289zm0 60v10l90.25 180.5h5L.5 349zm0 22v8l80.25 160.5h4L.5 371zm0 22v6l70.25 140.5h3L.5 393zm0 22v4l60.25 120.5h2L.5 415zm0 22v2l50.25 100.5h1L.5 437zm0 40v2l30.25 60.5h1L.5 477zm0 18v4l19.281 38.563c.776.293 1.57.55 2.375.78L.5 495zm.281 18.531A29.812 29.812 0 0 0 9.5 531L.781 513.531z" transform="translate(0 512.362)" id="rect6472-2" style="fill:#252525;fill-opacity:1;stroke:none"/></g></g></svg>